<?xml version="1.0" encoding="utf-8"?>
<svg width="305" height="121" viewBox="0 0 305 121" fill="none" xmlns="http://www.w3.org/2000/svg">
<path d="M36.288 16.2V54C32.994 54 29.7 54 26.406 54V25.11H14.742V54C11.448 54 8.1 54 4.86 54V16.2C8.1 16.2 11.448 16.2 36.288 16.2ZM55.6048 54C52.3648 54 49.1248 54 45.9388 54C45.9388 41.418 45.9388 28.836 45.9388 16.2C51.3928 16.2 57.0088 16.2 62.5708 16.2C80.6608 16.254 80.6608 44.334 62.5708 44.334H55.6048V54ZM62.5168 35.64C67.8088 35.64 68.1328 24.894 62.5168 24.84C60.2488 24.786 57.8188 24.84 55.6048 24.84C55.6048 27.918 55.6048 32.562 55.6048 35.64H62.5168ZM105.195 54L102.981 49.248H88.0774L85.8634 54H76.4134V52.596L93.4234 15.714H97.5814L114.645 52.596V54H105.195ZM99.8494 40.986L95.4754 31.05L91.2094 40.986H99.8494ZM129.491 54C126.143 54 122.903 54 119.663 54V16.2C122.903 16.2 126.143 16.2 129.491 16.2V30.51H130.193C139.859 30.51 139.373 23.274 139.373 16.2C142.667 16.2 145.961 16.2 149.309 16.2C149.309 23.922 149.525 31.05 142.019 35.856L152.279 52.488V54H141.533L133.217 39.366C131.921 39.582 130.733 39.582 129.491 39.582V54ZM163.403 24.84H154.115C154.115 21.924 154.115 19.062 154.115 16.2H182.195C182.195 19.062 182.195 21.924 182.195 24.84H172.961V54C169.775 54 166.589 54 163.403 54V24.84ZM210.735 35.424L191.673 54.054H188.217V16.2C191.511 16.2 194.805 16.2 198.099 16.2V34.722L217.215 16.038H220.725V54C217.431 54 214.083 54 210.735 54V35.424ZM240.286 54C236.938 54 233.698 54 230.458 54V16.2C233.698 16.2 236.938 16.2 240.286 16.2V30.51H240.988C250.654 30.51 250.168 23.274 250.168 16.2C253.462 16.2 256.756 16.2 260.104 16.2C260.104 23.922 260.32 31.05 252.814 35.856L263.074 52.488V54H252.328L244.012 39.366C242.716 39.582 241.528 39.582 240.286 39.582V54ZM294.934 54L292.72 49.248H277.816L275.602 54H266.152V52.596L283.162 15.714H287.32L304.384 52.596V54H294.934ZM289.588 40.986L285.214 31.05L280.948 40.986H289.588ZM2.538 89.1C2.592 76.248 12.312 69.768 21.924 69.768C29.754 69.768 38.232 74.034 39.69 84.132C36.396 84.132 33.48 84.132 30.186 84.132C28.836 80.298 25.974 78.57 21.924 78.57C16.254 78.57 12.528 82.836 12.528 89.1C12.528 94.662 16.2 99.522 21.924 99.576C26.028 99.576 29.322 97.524 30.348 93.474C33.588 93.474 36.558 93.474 39.852 93.474C38.448 104.166 29.97 108.378 21.924 108.378C12.312 108.432 2.592 101.952 2.538 89.1ZM52.8192 78.84H43.5312C43.5312 75.924 43.5312 73.062 43.5312 70.2H71.6112C71.6112 73.062 71.6112 75.924 71.6112 78.84H62.3772V108C59.1912 108 56.0052 108 52.8192 108V78.84ZM81.6417 108V106.974L87.5817 94.77L74.8377 71.658V70.2H85.6377L92.7657 84.132H93.0357L99.5157 70.2H109.992V71.658L92.0637 108H81.6417ZM115.731 108.108V112.266H107.739V99.63H111.573L124.533 69.714H128.691L142.083 99.63H146.025V112.266H138.087V108.108H115.731ZM126.585 85.86L121.347 99.522H132.039L126.585 85.86ZM174.478 70.2C174.478 73.008 174.478 75.924 174.478 78.84C168.862 78.84 166.054 78.84 160.492 78.84V84.186H173.344C173.344 87.048 173.344 89.91 173.344 92.772H160.492C160.492 94.986 160.492 97.146 160.492 99.414C166.054 99.414 169.294 99.414 174.964 99.414C174.964 102.222 174.964 105.138 174.964 108C166.108 108 159.628 108 150.88 108C150.88 95.364 150.88 82.728 150.88 70.2C159.628 70.2 165.622 70.2 174.478 70.2ZM214.741 70.2V108C211.447 108 208.153 108 204.859 108V92.826H193.195V108C189.901 108 186.553 108 183.313 108V70.2C186.553 70.2 189.901 70.2 193.195 70.2V83.916H204.859V70.2C208.153 70.2 211.447 70.2 214.741 70.2ZM229.954 78.84H220.666C220.666 75.924 220.666 73.062 220.666 70.2H248.746C248.746 73.062 248.746 75.924 248.746 78.84H239.512V108C236.326 108 233.14 108 229.954 108V78.84ZM276.477 108L274.263 103.248H259.359L257.145 108H247.695V106.596L264.705 69.714H268.863L285.927 106.596V108H276.477ZM271.131 94.986L266.757 85.05L262.491 94.986H271.131Z" fill="black"/>
<path d="M93 0H5V10H84.4444L93 0Z" fill="#FFCF26"/>
<path d="M276 80.5L287 59H297.5L287 80.5H276Z" fill="#FFCF26"/>
</svg>
